<svg width="24" height="24" viewBox="0 0 24 24" fill="none" xmlns="http://www.w3.org/2000/svg">
<path fill-rule="evenodd" clip-rule="evenodd" d="M16.5 11.5C16.5 13.7091 14.7091 15.5 12.5 15.5C10.2908 15.5 8.49998 13.7091 8.49998 11.5C8.49998 9.29086 10.2908 7.5 12.5 7.5C14.7091 7.5 16.5 9.29086 16.5 11.5ZM18 11.5C18 14.5376 15.5375 17 12.5 17C11.103 17 9.82771 16.4792 8.85761 15.6211L5.49386 18.5644L4.5061 17.4356L7.87915 14.4841C7.32292 13.6246 6.99998 12.6 6.99998 11.5C6.99998 8.46243 9.46242 6 12.5 6C15.5375 6 18 8.46243 18 11.5Z" fill="#1E1E1E"/>
</svg>
