<svg width="24" height="24" viewBox="0 0 24 24" fill="none" xmlns="http://www.w3.org/2000/svg">
<path fill-rule="evenodd" clip-rule="evenodd" d="M6.99847 2C6.23667 2 5.78473 2.85168 6.21177 3.48254L7.5192 5.41398V9.7801L5.1229 12.6508C4.60652 13.2694 5.04639 14.2096 5.85221 14.2096H10.5644V19.2303C10.5644 19.2573 10.5699 19.2841 10.5806 19.309L11.3806 21.1759C11.4499 21.3375 11.679 21.3375 11.7483 21.1759L12.5483 19.309C12.5589 19.2841 12.5644 19.2573 12.5644 19.2303V14.2096H17.2767C18.0825 14.2096 18.5224 13.2694 18.006 12.6508L15.6097 9.7801V5.41398L16.9172 3.48254C17.3442 2.85168 16.8923 2 16.1304 2L6.99847 2ZM8.89029 4.76357L8.03494 3.5L15.094 3.5L14.2386 4.76357L14.1097 4.95402V5.184V10.052V10.3239L14.284 10.5326L16.1012 12.7096H7.02775L8.84497 10.5326L9.0192 10.3239V10.052V5.184V4.95402L8.89029 4.76357Z" fill="#2C3338"/>
</svg>
