<svg width="24" height="24" viewBox="0 0 24 24" fill="none" xmlns="http://www.w3.org/2000/svg">
<path d="M16 19.4998L19.0047 16.5M19.0047 16.5L16 13.4998M19.0047 16.5C18.1396 16.5 16.2635 16.5 15.0701 16.5C14.4014 16.5 13.7772 16.1658 13.4063 15.6094L8.59373 8.3906C8.2228 7.8342 7.59834 7.5 6.92963 7.5H4.5" stroke="#2C3338" stroke-width="1.5"/>
<path fill-rule="evenodd" clip-rule="evenodd" d="M15.4701 5.03076L17.1919 6.74976H17.186H17.1775H17.169H17.1605H17.152H17.1435H17.1349H17.1264H17.1179H17.1094H17.1008H17.0923H17.0838H17.0752H17.0667H17.0581H17.0496H17.041H17.0324H17.0239H17.0153H17.0068H16.9982H16.9896H16.981H16.9725H16.9639H16.9553H16.9467H16.9381H16.9296H16.921H16.9124H16.9038H16.8952H16.8866H16.878H16.8694H16.8608H16.8522H16.8436H16.835H16.8264H16.8178H16.8092H16.8006H16.792H16.7834H16.7748H16.7662H16.7576H16.749H16.7404H16.7318H16.7232H16.7146H16.706H16.6974H16.6888H16.6802H16.6716H16.663H16.6544H16.6458H16.6372H16.6286H16.62H16.6114H16.6028H16.5942H16.5856H16.577H16.5684H16.5598H16.5512H16.5426H16.5341H16.5255H16.5169H16.5083H16.4997H16.4912H16.4826H16.474H16.4654H16.4569H16.4483H16.4397H16.4312H16.4226H16.4141H16.4055H16.397H16.3884H16.3799H16.3714H16.3628H16.3543H16.3458H16.3372H16.3287H16.3202H16.3117H16.3032H16.2947H16.2862H16.2777H16.2692H16.2607H16.2522H16.2437H16.2352H16.2268H16.2183H16.2098H16.2014H16.1929H16.1845H16.176H16.1676H16.1591H16.1507H16.1423H16.1339H16.1254H16.117H16.1086H16.1002H16.0918H16.0835H16.0751H16.0667H16.0583H16.05H16.0416H16.0333H16.0249H16.0166H16.0082H15.9999H15.9916H15.9833H15.975H15.9667H15.9584H15.9501H15.9418H15.9336H15.9253H15.917H15.9088H15.9005H15.8923H15.8841H15.8759H15.8677H15.8594H15.8512H15.8431H15.8349H15.8267H15.8185H15.8104H15.8022H15.7941H15.786H15.7778H15.7697H15.7616H15.7535H15.7454H15.7374H15.7293H15.7212H15.7132H15.7051H15.6971H15.6891H15.6811H15.6731H15.6651H15.6571H15.6491H15.6411H15.6332H15.6252H15.6173H15.6094H15.6015H15.5936H15.5857H15.5778H15.5699H15.562H15.5542H15.5463H15.5385H15.5307H15.5229H15.5151H15.5073H15.4995H15.4917H15.484H15.4762H15.4685H15.4608H15.4531H15.4454H15.4377H15.43H15.4224H15.4147H15.4071H15.3995H15.3918H15.3842H15.3767H15.3691H15.3615H15.354H15.3464H15.3389H15.3314H15.3239H15.3164H15.3089H15.3015H15.294H15.2866H15.2792H15.2718H15.2644H15.257H15.2496H15.2423H15.2349H15.2276H15.2203H15.213H15.2057H15.1984H15.1912H15.184H15.1767H15.1695H15.1623H15.1551H15.148H15.1408H15.1337H15.1266H15.1194H15.1124H15.1053H15.0982H15.0912H15.0841H15.0771H15.0701C14.1505 6.74976 13.2922 7.20937 12.7822 7.97433L11.7511 9.52107L12.6525 10.8731L14.0303 8.80638C14.2622 8.45855 14.6523 8.24976 15.0701 8.24976H15.0771H15.0841H15.0912H15.0982H15.1053H15.1124H15.1194H15.1266H15.1337H15.1408H15.148H15.1551H15.1623H15.1695H15.1767H15.184H15.1912H15.1984H15.2057H15.213H15.2203H15.2276H15.2349H15.2423H15.2496H15.257H15.2644H15.2718H15.2792H15.2866H15.294H15.3015H15.3089H15.3164H15.3239H15.3314H15.3389H15.3464H15.354H15.3615H15.3691H15.3767H15.3842H15.3918H15.3995H15.4071H15.4147H15.4224H15.43H15.4377H15.4454H15.4531H15.4608H15.4685H15.4762H15.484H15.4917H15.4995H15.5073H15.5151H15.5229H15.5307H15.5385H15.5463H15.5542H15.562H15.5699H15.5778H15.5857H15.5936H15.6015H15.6094H15.6173H15.6252H15.6332H15.6411H15.6491H15.6571H15.6651H15.6731H15.6811H15.6891H15.6971H15.7051H15.7132H15.7212H15.7293H15.7374H15.7454H15.7535H15.7616H15.7697H15.7778H15.786H15.7941H15.8022H15.8104H15.8185H15.8267H15.8349H15.8431H15.8512H15.8594H15.8677H15.8759H15.8841H15.8923H15.9005H15.9088H15.917H15.9253H15.9336H15.9418H15.9501H15.9584H15.9667H15.975H15.9833H15.9916H15.9999H16.0082H16.0166H16.0249H16.0333H16.0416H16.05H16.0583H16.0667H16.0751H16.0835H16.0918H16.1002H16.1086H16.117H16.1254H16.1339H16.1423H16.1507H16.1591H16.1676H16.176H16.1845H16.1929H16.2014H16.2098H16.2183H16.2268H16.2352H16.2437H16.2522H16.2607H16.2692H16.2777H16.2862H16.2947H16.3032H16.3117H16.3202H16.3287H16.3372H16.3458H16.3543H16.3628H16.3714H16.3799H16.3884H16.397H16.4055H16.4141H16.4226H16.4312H16.4397H16.4483H16.4569H16.4654H16.474H16.4826H16.4912H16.4997H16.5083H16.5169H16.5255H16.5341H16.5426H16.5512H16.5598H16.5684H16.577H16.5856H16.5942H16.6028H16.6114H16.62H16.6286H16.6372H16.6458H16.6544H16.663H16.6716H16.6802H16.6888H16.6974H16.706H16.7146H16.7232H16.7318H16.7404H16.749H16.7576H16.7662H16.7748H16.7834H16.792H16.8006H16.8092H16.8178H16.8264H16.835H16.8436H16.8522H16.8608H16.8694H16.878H16.8866H16.8952H16.9038H16.9124H16.921H16.9296H16.9381H16.9467H16.9553H16.9639H16.9725H16.981H16.9896H16.9982H17.0068H17.0153H17.0239H17.0324H17.041H17.0496H17.0581H17.0667H17.0752H17.0838H17.0923H17.1008H17.1094H17.1179H17.1264H17.1349H17.1435H17.152H17.1605H17.169H17.1775H17.186H17.1921L15.4701 9.96928L16.5299 11.0307L19.5346 8.03048L20.0661 7.49971L19.5345 6.96899L16.5299 3.96924L15.4701 5.03076ZM10.2488 14.4787L9.34738 13.1266L7.9697 15.1931C7.73786 15.5409 7.34757 15.7498 6.92963 15.7498H4.5V17.2498H6.92963C7.8491 17.2498 8.70774 16.7902 9.21777 16.0252L10.2488 14.4787Z" fill="#2C3338"/>
</svg>
