<svg width="24" height="24" viewBox="0 0 24 24" fill="none" xmlns="http://www.w3.org/2000/svg">
<path fill-rule="evenodd" clip-rule="evenodd" d="M5.5061 11.5C5.5061 14.5376 7.96854 17 11.0061 17C12.4031 17 13.6784 16.4792 14.6485 15.6211L18.0122 18.5644L19 17.4356L15.6269 14.4841C16.1832 13.6246 16.5061 12.6 16.5061 11.5C16.5061 8.46243 14.0437 6 11.0061 6C7.96854 6 5.5061 8.46243 5.5061 11.5ZM7.0061 11.5C7.0061 13.7091 8.79696 15.5 11.0061 15.5C13.2152 15.5 15.0061 13.7091 15.0061 11.5C15.0061 9.29086 13.2152 7.5 11.0061 7.5C8.79696 7.5 7.0061 9.29086 7.0061 11.5Z" fill="#1E1E1E"/>
</svg>
