<svg width="24" height="24" viewBox="0 0 24 24" fill="none" xmlns="http://www.w3.org/2000/svg">
<path fill-rule="evenodd" clip-rule="evenodd" d="M4.5 11.75C4.5 7.74594 7.74594 4.5 11.75 4.5C15.7535 4.5 18.9991 7.74502 19 11.7483L19 11.7495L18.9997 11.7649C18.9993 11.7803 18.9985 11.8054 18.9967 11.8388C18.9931 11.9058 18.9857 12.0052 18.9706 12.1257C18.94 12.3707 18.88 12.684 18.7665 12.9867C18.6519 13.2924 18.4976 13.5472 18.3025 13.7207C18.1229 13.8804 17.8781 14 17.5 14C17.1219 14 16.8771 13.8804 16.6975 13.7207C16.5024 13.5472 16.3481 13.2924 16.2335 12.9867C16.12 12.684 16.06 12.3707 16.0294 12.1257C16.0143 12.0052 16.0069 11.9058 16.0033 11.8388C16.0015 11.8054 16.0007 11.7803 16.0003 11.7649L16 11.7495L16 11.7483V7.75H14.5V8.84525C13.7832 8.16638 12.8152 7.75 11.75 7.75C9.54086 7.75 7.75 9.54086 7.75 11.75C7.75 13.9591 9.54086 15.75 11.75 15.75C13.1216 15.75 14.3319 15.0597 15.0525 14.0076C15.2113 14.3017 15.4214 14.5934 15.7009 14.8418C16.1541 15.2446 16.7531 15.5 17.5 15.5C18.2469 15.5 18.8459 15.2446 19.2991 14.8418C19.7367 14.4528 20.0044 13.9576 20.171 13.5133C20.3388 13.066 20.4194 12.6293 20.4591 12.3118C20.4791 12.1511 20.4893 12.016 20.4945 11.919C20.4971 11.8704 20.4985 11.831 20.4992 11.8024L20.4999 11.7677L20.5 11.7566L20.5 11.7528L20.5 11.7512V11.7506C20.5 11.7503 20.5 11.75 19.75 11.75H20.5C20.5 6.91751 16.5825 3 11.75 3C6.91751 3 3 6.91751 3 11.75C3 16.5825 6.91751 20.5 11.75 20.5V19C7.74594 19 4.5 15.7541 4.5 11.75ZM14.25 11.75C14.25 13.1307 13.1307 14.25 11.75 14.25C10.3693 14.25 9.25 13.1307 9.25 11.75C9.25 10.3693 10.3693 9.25 11.75 9.25C13.1307 9.25 14.25 10.3693 14.25 11.75Z" fill="#2C3338"/>
</svg>
