<svg width="20" height="20" viewBox="0 0 20 20" fill="none" xmlns="http://www.w3.org/2000/svg">
<path d="M1.32308 10C1.32308 13.4385 3.32308 16.4 6.21538 17.8077L2.07692 6.46923C1.57998 7.57999 1.3231 8.78314 1.32308 10ZM10 18.6769C11.0077 18.6769 11.9769 18.5 12.8846 18.1846L12.8231 18.0692L10.1538 10.7615L7.55385 18.3231C8.32308 18.5538 9.14615 18.6769 10 18.6769ZM11.1923 5.93077L14.3308 15.2615L15.2 12.3692C15.5692 11.1692 15.8538 10.3077 15.8538 9.56154C15.8538 8.48462 15.4692 7.74615 15.1462 7.17692C14.7 6.45385 14.2923 5.84615 14.2923 5.13846C14.2923 4.33846 14.8923 3.6 15.7538 3.6H15.8615C14.2627 2.13224 12.1704 1.31946 10 1.32308C8.56293 1.32281 7.14834 1.67979 5.88347 2.3619C4.61861 3.04402 3.54315 4.02987 2.75385 5.23077L3.30769 5.24615C4.21538 5.24615 5.61538 5.13077 5.61538 5.13077C6.09231 5.10769 6.14615 5.79231 5.67692 5.84615C5.67692 5.84615 5.20769 5.90769 4.67692 5.93077L7.84615 15.3308L9.74615 9.63846L8.39231 5.93077C8.08905 5.91404 7.78636 5.88838 7.48462 5.85385C7.01538 5.82308 7.06923 5.10769 7.53846 5.13077C7.53846 5.13077 8.96923 5.24615 9.82308 5.24615C10.7308 5.24615 12.1308 5.13077 12.1308 5.13077C12.6 5.10769 12.6615 5.79231 12.1923 5.84615C12.1923 5.84615 11.7231 5.9 11.1923 5.93077ZM14.3615 17.5C15.6742 16.7368 16.7636 15.6424 17.5208 14.3263C18.2781 13.0102 18.6767 11.5184 18.6769 10C18.6769 8.49231 18.2923 7.07692 17.6154 5.83846C17.7529 7.20099 17.5466 8.57623 17.0154 9.83846L14.3615 17.5ZM10 20C7.34784 20 4.8043 18.9464 2.92893 17.0711C1.05357 15.1957 0 12.6522 0 10C0 7.34784 1.05357 4.8043 2.92893 2.92893C4.8043 1.05357 7.34784 0 10 0C12.6522 0 15.1957 1.05357 17.0711 2.92893C18.9464 4.8043 20 7.34784 20 10C20 12.6522 18.9464 15.1957 17.0711 17.0711C15.1957 18.9464 12.6522 20 10 20Z" fill="#00101C"/>
</svg>
